<svg width="23" height="28" viewBox="0 0 23 28" fill="none" xmlns="http://www.w3.org/2000/svg">
<path id="Vector" d="M17.4981 2.62472C17.4981 1.9286 17.2216 1.26099 16.7294 0.768763C16.2372 0.276532 15.5695 0 14.8734 0C14.1773 0 13.5097 0.276532 13.0175 0.768763C12.5252 1.26099 12.2487 1.9286 12.2487 2.62472C12.2487 3.32084 12.5252 3.98845 13.0175 4.48068C13.5097 4.97291 14.1773 5.24944 14.8734 5.24944C15.5695 5.24944 16.2372 4.97291 16.7294 4.48068C17.2216 3.98845 17.4981 3.32084 17.4981 2.62472ZM6.87349 9.59664C7.41484 9.05529 8.15304 8.74907 8.92406 8.74907C9.02795 8.74907 9.13185 8.75454 9.23027 8.76548L7.5242 13.8892C7.01566 15.4202 7.61716 17.1044 8.98967 17.9629L13.7032 20.9103L12.3143 25.766C12.0464 26.6956 12.5877 27.6635 13.5173 27.9314C14.4469 28.1994 15.4148 27.658 15.6827 26.7284L17.2521 21.2384C17.5747 20.1119 17.1099 18.9089 16.1202 18.291L13.0142 16.3498L14.7039 11.8441L14.9828 12.5166C15.803 14.4743 17.7114 15.7483 19.8331 15.7483H20.9978C21.9656 15.7483 22.7476 14.9664 22.7476 13.9985C22.7476 13.0307 21.9656 12.2487 20.9978 12.2487H19.8331C19.1277 12.2487 18.4879 11.8222 18.2199 11.1715L17.8755 10.3512C17.0771 8.43192 15.464 6.96645 13.4736 6.35402L10.8106 5.53379C10.2036 5.34787 9.5693 5.24944 8.92952 5.24944C7.23439 5.24944 5.60488 5.92203 4.40735 7.12503L3.13873 8.38818C2.45521 9.0717 2.45521 10.1817 3.13873 10.8653C3.82225 11.5488 4.93229 11.5488 5.61581 10.8653L6.87896 9.60211L6.87349 9.59664ZM4.98697 19.248H1.74981C0.781949 19.248 0 20.0299 0 20.9978C0 21.9656 0.781949 22.7476 1.74981 22.7476H5.55566C6.59461 22.7476 7.53514 22.1352 7.95619 21.1892L8.58503 19.7729L8.06555 19.4448C7.10862 18.8488 6.39776 17.9793 5.99312 16.9896L4.98697 19.248Z" fill="#757575"/>
</svg>
