<svg width="16" height="15" viewBox="0 0 16 15" fill="none" xmlns="http://www.w3.org/2000/svg">
<path id="Vector" d="M2.34317 2.19672C-0.781056 5.12568 -0.781056 9.87432 2.34317 12.8033C5.46739 15.7322 10.5326 15.7322 13.6568 12.8033C16.7811 9.87432 16.7811 5.12568 13.6568 2.19672C10.5326 -0.73224 5.46739 -0.73224 2.34317 2.19672ZM9.36144 6.45098C10.4809 6.45184 11.6002 6.44551 12.7196 6.45509C13.5778 6.46245 14.1131 7.30605 13.7063 7.99849C13.4888 8.36876 13.1434 8.55227 12.6942 8.55364C11.58 8.55672 10.466 8.55552 9.35176 8.55638C9.13155 8.55655 9.13064 8.5574 9.13064 8.75957C9.13027 9.78924 9.12954 10.8189 9.13118 11.8486C9.13173 12.1589 9.03532 12.4328 8.8005 12.6703C8.46635 12.9488 8.07523 13.0575 7.63645 12.9079C7.21575 12.7644 6.96413 12.4756 6.90187 12.0542C6.8889 11.9664 6.88927 11.8765 6.88927 11.7875C6.88835 10.7825 6.88872 9.7776 6.88854 8.77258C6.88854 8.5562 6.88799 8.55603 6.65098 8.55603C5.57914 8.55603 4.50711 8.55501 3.43527 8.55672C3.14367 8.55723 2.87069 8.5117 2.6282 8.34359C2.26337 8.09093 2.09465 7.6402 2.21864 7.22046C2.33915 6.81235 2.72863 6.48556 3.17581 6.46725C3.72925 6.44448 4.28417 6.45338 4.83853 6.4515C5.45096 6.44961 6.06357 6.45116 6.67599 6.45098C6.88744 6.45098 6.88835 6.45047 6.88854 6.25549C6.88908 5.21589 6.88689 4.17629 6.88981 3.13669C6.89146 2.5889 7.22323 2.182 7.7513 2.06713C8.38637 1.92882 8.99259 2.30011 9.10708 2.90165C9.12644 3.00317 9.1299 3.10844 9.1299 3.21201C9.13155 4.21703 9.13064 5.22188 9.13082 6.2269C9.13064 6.44996 9.131 6.45081 9.36144 6.45098Z" fill="black"/>
</svg>
