<svg width="21" height="19" viewBox="0 0 21 19" fill="none" xmlns="http://www.w3.org/2000/svg">
<path id="Vector" d="M5.55204 12.2075C5.42975 12.1395 5.26769 12.1497 5.15653 12.2417L0.819683 15.8264C0.038737 16.472 -0.123927 17.2147 0.080774 17.8197C0.170331 18.0845 0.330645 18.3214 0.541091 18.5104C0.751275 18.7008 1.01316 18.8461 1.30428 18.9268C1.97374 19.1123 2.79463 18.9649 3.50769 18.2571L7.44767 14.3552C7.55818 14.2557 7.58239 14.1179 7.52616 14.0065C7.50611 13.9927 7.48656 13.978 7.46757 13.9623L7.45918 13.9553L7.45111 13.948L5.55204 12.2075ZM5.55204 12.2075C5.5665 12.2277 5.58203 12.2473 5.59863 12.2664C5.59863 12.2664 5.59864 12.2664 5.59865 12.2664C5.61972 12.2906 5.64252 12.3139 5.66704 12.3361L5.66728 12.3363L7.44227 13.9401L5.55204 12.2075ZM9.03063 12.0843L8.00445 13.1003L6.52184 11.7607L7.56883 10.8964L7.9322 10.5965L7.65435 10.216C6.78363 9.02352 6.41359 7.62832 6.53675 6.26845L6.53675 6.26844C6.66515 4.85029 7.32857 3.45538 8.54318 2.35648C9.90585 1.12363 11.7012 0.5 13.5065 0.5C15.3118 0.5 17.1071 1.12341 18.47 2.35628C19.8302 3.58708 20.5 5.18878 20.5 6.77967C20.5 8.37052 19.8299 9.97223 18.4698 11.2028C17.2531 12.3034 15.6916 12.9186 14.0843 13.0373L14.0841 13.0373C12.5431 13.1516 10.971 12.8068 9.63897 12.0105L9.30617 11.8115L9.03063 12.0843ZM5.94794 11.8799C5.94147 11.8741 5.93493 11.8683 5.92831 11.8627L5.94794 11.8799ZM5.37486 12.7099L6.95568 14.1387L3.15586 17.9019L3.15547 17.9023C2.56538 18.4879 1.92843 18.5808 1.43798 18.445C1.22056 18.3847 1.02817 18.277 0.876774 18.1398L0.875162 18.1384C0.725023 18.0035 0.614904 17.8383 0.55442 17.6595L0.554396 17.6594C0.42659 17.2817 0.490502 16.7473 1.13826 16.2118L5.37486 12.7099ZM5.47508 12.6271C5.47507 12.6271 5.47506 12.6271 5.47504 12.6271L5.47508 12.6271ZM19.4749 6.77967C19.4749 5.36956 18.8792 3.96932 17.7088 2.9104C16.5409 1.85374 15.0182 1.33216 13.5065 1.33216C11.9948 1.33216 10.4721 1.85374 9.30415 2.9104C8.13373 3.96932 7.53802 5.36956 7.53802 6.77967C7.53802 8.18977 8.13373 9.59001 9.30415 10.6489C10.4721 11.7056 11.9948 12.2272 13.5065 12.2272C15.0182 12.2272 16.5409 11.7056 17.7088 10.6489C18.8792 9.59001 19.4749 8.18977 19.4749 6.77967Z" fill="black" stroke="black"/>
</svg>
