<svg width="118" height="118" viewBox="0 0 118 118" fill="none" xmlns="http://www.w3.org/2000/svg">
<path id="Vector" d="M117.673 38.4036C118.455 40.4091 117.795 42.6451 116.108 44.0742L105.52 53.1565C105.789 55.0697 105.936 57.0291 105.936 59.0115C105.936 60.9939 105.789 62.9533 105.52 64.8666L116.108 73.9488C117.795 75.378 118.455 77.614 117.673 79.6195C116.597 82.3626 115.301 84.9904 113.809 87.5261L112.66 89.3932C111.046 91.9289 109.237 94.3262 107.256 96.5853C105.814 98.245 103.417 98.7982 101.266 98.1528L87.6457 94.0727C84.3691 96.447 80.7502 98.4294 76.8867 99.9277L73.8302 113.09C73.3412 115.188 71.6295 116.847 69.3799 117.193C66.0055 117.723 62.5333 118 58.9878 118C55.4422 118 51.97 117.723 48.5956 117.193C46.346 116.847 44.6344 115.188 44.1453 113.09L41.0888 99.9277C37.2254 98.4294 33.6065 96.447 30.3299 94.0727L16.7345 98.1758C14.5827 98.8213 12.1864 98.245 10.7437 96.6083C8.76309 94.3493 6.95364 91.9519 5.3398 89.4163L4.19055 87.5491C2.69897 85.0135 1.403 82.3856 0.32711 79.6425C-0.455358 77.637 0.204849 75.4011 1.89205 73.9719L12.4798 64.8896C12.2108 62.9533 12.0641 60.9939 12.0641 59.0115C12.0641 57.0291 12.2108 55.0697 12.4798 53.1565L1.89205 44.0742C0.204849 42.6451 -0.455358 40.4091 0.32711 38.4036C1.403 35.6605 2.69897 33.0326 4.19055 30.497L5.3398 28.6298C6.95364 26.0942 8.76309 23.6968 10.7437 21.4378C12.1864 19.7781 14.5827 19.2248 16.7345 19.8703L30.3543 23.9504C33.6309 21.5761 37.2498 19.5937 41.1133 18.0953L44.1698 4.93299C44.6588 2.83532 46.3705 1.17562 48.6201 0.82985C51.9945 0.276617 55.4667 0 59.0122 0C62.5578 0 66.03 0.276617 69.4044 0.806798C71.654 1.15257 73.3656 2.81227 73.8547 4.90994L76.9112 18.0723C80.7746 19.5706 84.3935 21.553 87.6701 23.9273L101.29 19.8472C103.442 19.2018 105.838 19.7781 107.281 21.4147C109.261 23.6738 111.071 26.0711 112.685 28.6068L113.834 30.4739C115.325 33.0096 116.621 35.6374 117.697 38.3805L117.673 38.4036ZM59.0122 77.4526C64.2003 77.4526 69.1759 75.5097 72.8444 72.0514C76.513 68.593 78.5739 63.9024 78.5739 59.0115C78.5739 54.1206 76.513 49.4301 72.8444 45.9717C69.1759 42.5133 64.2003 40.5704 59.0122 40.5704C53.8241 40.5704 48.8485 42.5133 45.18 45.9717C41.5115 49.4301 39.4505 54.1206 39.4505 59.0115C39.4505 63.9024 41.5115 68.593 45.18 72.0514C48.8485 75.5097 53.8241 77.4526 59.0122 77.4526Z" fill="white"/>
</svg>
