<svg width="50" height="50" viewBox="0 0 32 32" fill="none" xmlns="http://www.w3.org/2000/svg">
<g id="Group 365">
<path id="Vector" d="M8 13C7.4477 13 7 13.4477 7 14C7 14.5523 7.4477 15 8 15H12C12.5523 15 13 14.5523 13 14C13 13.4477 12.5523 13 12 13H8Z" fill="#757575"/>
<path id="Vector_2" d="M8 10C7.4477 10 7 10.4477 7 11C7 11.5523 7.4477 12 8 12H14C14.5523 12 15 11.5523 15 11C15 10.4477 14.5523 10 14 10H8Z" fill="#757575"/>
<path id="Vector_3" fill-rule="evenodd" clip-rule="evenodd" d="M31.1697 3.83033C30.0625 2.72322 28.2676 2.72322 27.1604 3.83033L13.4282 17.5626C12.1098 18.8809 11.1165 20.4882 10.5269 22.2569L10.0513 23.6838C9.93154 24.0431 10.0251 24.4393 10.2929 24.7071C10.5607 24.9749 10.9569 25.0685 11.3162 24.9487L12.7431 24.4731C14.5118 23.8835 16.119 22.8902 17.4374 21.5718L29.1622 9.84702C29.4316 10.175 29.4131 10.6602 29.1067 10.9666L25.9787 14.0946C25.5882 14.4851 25.5882 15.1183 25.9787 15.5088C26.3692 15.8993 27.0024 15.8993 27.3929 15.5088L30.5209 12.3808C31.6085 11.2932 31.6277 9.54182 30.5784 8.43082L31.1697 7.83962C32.2768 6.73242 32.2768 4.93753 31.1697 3.83033ZM18.785 15.0342L19.9658 16.215L16.0232 20.1576C15.048 21.1328 13.8831 21.8946 12.6028 22.3972C13.1054 21.1169 13.8672 19.952 14.8424 18.9768L18.785 15.0342Z" fill="#757575"/>
<path id="Vector_4" d="M8 0C7.4477 0 7 0.44771 7 1V2C6.4477 2 6 2.4477 6 3H3C1.34315 3 0 4.3431 0 6V29C0 30.6569 1.34315 32 3 32H21C22.6569 32 24 30.6569 24 29V16.0092L19 21.0092V27H5V5H6V7C6 7.5523 6.4477 8 7 8H17C17.5523 8 18 7.5523 18 7V5H19V10.9908L24 5.9908C23.995 4.3382 22.6538 3 21 3H18C18 2.4477 17.5523 2 17 2V1C17 0.44771 16.5523 0 16 0H8Z" fill="#757575"/>
</g>
</svg>
