<svg width="28" height="32" viewBox="0 0 28 32" fill="none" xmlns="http://www.w3.org/2000/svg">
<g id="Mask group">
<g id="Group 359">
<g id="Group 355">
<path id="Vector" d="M9 1C9 0.447715 9.44771 0 10 0H18C18.5523 0 19 0.447715 19 1V5C19 5.55228 18.5523 6 18 6H10C9.44771 6 9 5.55228 9 5V1Z" fill="#757575"/>
<path id="Vector_2" fill-rule="evenodd" clip-rule="evenodd" d="M5 2H7V6.66667C7 7.40305 7.6268 8 8.4 8H19.6C20.3732 8 21 7.40305 21 6.66667V2H23C25.7614 2 28 4.23858 28 7V27C28 29.7614 25.7614 32 23 32H5C2.23858 32 0 29.7614 0 27V7C0 4.23858 2.23858 2 5 2ZM20 25C20 25.5523 19.5523 26 19 26C18.4477 26 18 25.5523 18 25V13C18 12.4477 18.4477 12 19 12C19.5523 12 20 12.4477 20 13V25ZM14 26C14.5523 26 15 25.5523 15 25V17C15 16.4477 14.5523 16 14 16C13.4477 16 13 16.4477 13 17V25C13 25.5523 13.4477 26 14 26ZM10 25C10 25.5523 9.55228 26 9 26C8.44771 26 8 25.5523 8 25V21C8 20.4477 8.44772 20 9 20C9.55229 20 10 20.4477 10 21V25Z" fill="#757575"/>
</g>
</g>
</g>
</svg>
