<svg width="118" height="118" viewBox="0 0 118 118" fill="none" xmlns="http://www.w3.org/2000/svg">
<path id="Vector" d="M59 59C50.0584 59 41.4831 55.892 35.1604 50.3597C28.8377 44.8273 25.2857 37.3239 25.2857 29.5C25.2857 21.6761 28.8377 14.1727 35.1604 8.64035C41.4831 3.10803 50.0584 0 59 0C67.9416 0 76.517 3.10803 82.8396 8.64035C89.1623 14.1727 92.7143 21.6761 92.7143 29.5C92.7143 37.3239 89.1623 44.8273 82.8396 50.3597C76.517 55.892 67.9416 59 59 59ZM55.0755 82.7844L50.1763 75.6398C48.4906 73.1738 50.5187 70.0625 53.7848 70.0625H59H64.1888C67.4549 70.0625 69.483 73.1969 67.7973 75.6398L62.8982 82.7844L71.6955 111.339L81.1777 77.4836C81.7045 75.6168 83.7589 74.3953 85.8924 74.8793C104.356 78.9355 118 93.5473 118 110.925C118 114.843 114.365 118 109.914 118H75.1987C74.6455 118 74.1451 117.908 73.671 117.746L73.75 118H44.25L44.329 117.746C43.8549 117.908 43.3281 118 42.8013 118H8.08616C3.63482 118 0 114.82 0 110.925C0 93.5242 13.6701 78.9125 32.1076 74.8793C34.2411 74.4184 36.2955 75.6398 36.8223 77.4836L46.3045 111.339L55.1018 82.7844H55.0755Z" fill="white"/>
</svg>
