<svg width="118" height="100" viewBox="0 0 118 100" fill="none" xmlns="http://www.w3.org/2000/svg">
<path id="Vector" d="M59.0014 0C57.508 0 56.033 0.312438 54.6318 0.914999L2.91589 23.5222C1.16437 24.3033 0.00283788 26.3118 0.00283788 28.5658C0.00283788 30.8199 1.16437 32.8284 2.91589 33.6095L13.5909 38.2738C10.5673 44.0315 8.85262 50.8382 8.85262 58.002V64.2731C8.85262 70.6112 6.86142 77.1501 4.74116 82.3053C3.54275 85.2065 2.17841 88.0631 0.592824 90.6965C0.00283789 91.6561 -0.163096 92.9059 0.168771 94.0441C0.500638 95.1822 1.27499 96.0303 2.23372 96.3204L14.0334 99.8911C14.8078 100.137 15.6375 99.9581 16.3196 99.4448C17.0018 98.9315 17.4812 98.0835 17.6287 97.1238C19.2142 87.5721 18.4215 79.0024 17.2415 72.8652C16.6515 69.6962 15.8587 66.4602 14.7525 63.492V58.002C14.7525 51.2623 16.6331 44.9019 19.8964 39.8136C22.2748 36.3545 25.3538 33.5648 28.9675 31.8464L57.9136 18.0768C59.4255 17.3627 61.1401 18.2554 61.7301 20.0854C62.3201 21.9153 61.5826 23.9908 60.0708 24.705L31.1246 38.4746C28.8384 39.5681 26.8288 41.2419 25.1879 43.2951L54.6134 56.1497C56.0146 56.7523 57.4896 57.0647 58.983 57.0647C60.4764 57.0647 61.9513 56.7523 63.3526 56.1497L115.087 33.6095C116.838 32.8507 118 30.8199 118 28.5658C118 26.3118 116.838 24.3033 115.087 23.5222L63.371 0.914999C61.9698 0.312438 60.4948 0 59.0014 0ZM23.6023 83.9121C23.6023 91.79 39.4581 99.9804 59.0014 99.9804C78.5447 99.9804 94.4006 91.79 94.4006 83.9121L91.5797 51.4631L65.3622 62.9341C63.3157 63.8268 61.1586 64.2731 59.0014 64.2731C56.8443 64.2731 54.6687 63.8268 52.6406 62.9341L26.4231 51.4631L23.6023 83.9121Z" fill="white"/>
</svg>
