<svg width="28" height="32" viewBox="0 0 28 32" fill="none" xmlns="http://www.w3.org/2000/svg">
<g id="Group 364">
<g id="Group 355">
<path id="Vector" d="M18.1545 11.1172C19.7059 11.1172 21.1107 11.7647 22.129 12.8107C23.1484 13.8567 23.7781 15.3023 23.7781 16.8986C23.7781 18.4938 23.1484 19.9383 22.1311 20.9854C21.1118 22.0336 19.7059 22.681 18.1556 22.681C16.6031 22.681 15.1962 22.0336 14.18 20.9876L14.1513 20.9548C13.151 19.911 12.5331 18.4774 12.5331 16.8986C12.5331 15.3023 13.1627 13.8556 14.18 12.8107C15.1972 11.7647 16.6031 11.1172 18.1556 11.1172H18.1545ZM21.3804 13.5815C20.5564 12.7332 19.4149 12.2091 18.1545 12.2091C16.8951 12.2091 15.7537 12.7343 14.9297 13.5826C14.1046 14.431 13.5938 15.6037 13.5938 16.8986C13.5938 18.1804 14.094 19.3432 14.9169 20.2025C15.7547 21.0629 16.8951 21.5881 18.1556 21.5881C19.416 21.5881 20.5564 21.0629 21.3815 20.2156C22.2055 19.3673 22.7162 18.1935 22.7162 16.8986C22.7162 15.6037 22.2055 14.4299 21.3815 13.5815H21.3804ZM23.1803 10.0843C23.039 10.2012 22.9265 10.2438 22.8044 10.2438C22.6822 10.2438 22.5686 10.2012 22.4784 10.1291C22.0664 9.85069 21.6278 9.61048 21.167 9.41286C20.7168 9.22069 20.2453 9.07111 19.759 8.96629C19.4935 8.93681 19.2854 8.70533 19.2854 8.42364V6.77385H17.0204V8.42364C17.0204 8.67804 16.8452 8.90733 16.5936 8.95864C16.0945 9.06128 15.6156 9.21086 15.1526 9.4063C14.6791 9.6083 14.2394 9.8496 13.8274 10.128C13.6193 10.294 13.3178 10.2798 13.1266 10.0833L11.9915 8.91606L10.3902 10.5626L11.5254 11.7298C11.6984 11.9099 11.7324 12.1971 11.5912 12.4165C11.3119 12.8489 11.0698 13.314 10.8734 13.801C10.6865 14.264 10.54 14.7487 10.4401 15.2466C10.4115 15.5207 10.1864 15.7336 9.9124 15.7336H8.309V18.0625H9.9124C10.1598 18.0647 10.3807 18.2438 10.4306 18.5014C10.5293 19.007 10.6748 19.4994 10.8681 19.982C11.0645 20.469 11.2992 20.9221 11.57 21.3446C11.7314 21.5586 11.7175 21.8687 11.5264 22.0652L10.3924 23.2313L11.9947 24.8789L13.1256 23.7161C13.2997 23.5338 13.5811 23.4977 13.7956 23.643C14.2118 23.9279 14.6536 24.1725 15.1293 24.3756C15.5976 24.5743 16.0786 24.7272 16.5808 24.8309C16.8314 24.8746 17.0236 25.0984 17.0236 25.3692V27.0179H19.2886V25.3692C19.2907 25.1148 19.4648 24.8877 19.7154 24.8364C20.2071 24.7348 20.686 24.5852 21.1553 24.3865C21.6289 24.1834 22.0696 23.9421 22.4816 23.6637C22.5718 23.5927 22.6844 23.5502 22.8054 23.5502C22.9658 23.5502 23.1091 23.6233 23.2068 23.739L24.3143 24.8778L25.9166 23.2302L24.7826 22.0641C24.6095 21.884 24.5755 21.5968 24.7167 21.3774C24.9971 20.945 25.2381 20.481 25.4346 19.994C25.6215 19.531 25.768 19.0463 25.8689 18.5462C25.8975 18.2732 26.1226 18.0592 26.3966 18.0592H28V15.7303H26.3966C26.1492 15.7281 25.9283 15.5491 25.8784 15.2914C25.7797 14.7859 25.6342 14.2934 25.4409 13.8108C25.2392 13.3119 24.9981 12.8478 24.7189 12.4154C24.5808 12.2047 24.6021 11.9154 24.7836 11.7287L25.9198 10.5604L24.3175 8.91279L23.1824 10.08L23.1803 10.0843ZM22.2734 8.74355V3.3367C22.2734 2.91415 22.1046 2.52873 21.8328 2.24922C21.562 1.9697 21.1872 1.7961 20.7752 1.7961H17.1988C17.0714 2.18698 16.858 2.53746 16.5808 2.82353C16.1168 3.29848 15.4786 3.59328 14.7789 3.59328H7.49562C6.79373 3.59328 6.1545 3.29848 5.69259 2.82353C5.41545 2.53746 5.20202 2.18698 5.07459 1.7961H1.49827C1.08734 1.7961 0.712503 1.9697 0.440669 2.24922C0.168834 2.52873 0 2.91415 0 3.3367V30.4594C0 30.883 0.168835 31.2685 0.439607 31.548C0.711441 31.8264 1.08628 32 1.49721 32H20.7741C21.185 32 21.5609 31.8264 21.8317 31.548C22.1025 31.2685 22.2713 30.883 22.2713 30.4594V25.0525C22.043 25.1748 21.8094 25.2873 21.5567 25.3943C21.1574 25.5624 20.7571 25.6978 20.3462 25.8048V27.566C20.3462 27.8673 20.1083 28.1119 19.8152 28.1119H16.4885C16.1954 28.1119 15.9575 27.8673 15.9575 27.566V25.807C15.5392 25.6978 15.1293 25.5581 14.7194 25.3823C14.3127 25.2076 13.9358 25.0111 13.5758 24.7905L12.3642 26.0363C12.1582 26.2481 11.8227 26.247 11.6167 26.0352L9.26254 23.6178C9.05548 23.4049 9.05548 23.0588 9.26254 22.8459L10.4731 21.6012C10.2533 21.2212 10.0579 20.8249 9.88691 20.3991C9.72339 19.9885 9.59172 19.5769 9.48766 19.1544H7.77489C7.48182 19.1544 7.24396 18.9098 7.24396 18.6084V15.1877C7.24396 14.8863 7.48182 14.6417 7.77489 14.6417H9.48766C9.59384 14.2094 9.72976 13.789 9.89222 13.3839C10.0579 12.9701 10.2522 12.5727 10.4731 12.1938L9.26254 10.9491C9.05548 10.7362 9.05548 10.3901 9.26254 10.1772L11.6145 7.75979C11.8205 7.54688 12.1561 7.54579 12.3632 7.75761L13.5769 9.00341C13.9453 8.7774 14.3318 8.5765 14.746 8.40071C15.1484 8.23147 15.5487 8.09499 15.9575 7.98799V6.22792C15.9575 5.92657 16.1954 5.682 16.4885 5.682H19.8152C20.1083 5.682 20.3462 5.92657 20.3462 6.22792V7.99017C20.7677 8.09936 21.1765 8.23911 21.5694 8.40726C21.8094 8.5088 22.043 8.62126 22.2713 8.74246L22.2734 8.74355ZM7.49562 2.50143H14.7789C15.1887 2.50143 15.5615 2.32892 15.8312 2.05268C16.1009 1.77426 16.2676 1.39102 16.2676 0.970656V0H6.00584V0.970656C6.00584 1.03289 6.00903 1.09404 6.02177 1.19012C6.06955 1.5275 6.22352 1.82667 6.44332 2.05268C6.7141 2.33001 7.08681 2.50143 7.49562 2.50143Z" fill="#757575"/>
</g>
</g>
</svg>
