<svg width="100" height="134" viewBox="0 0 100 134" fill="none" xmlns="http://www.w3.org/2000/svg">
<path id="Vector" d="M16.6667 120.833C14.375 120.833 12.5 118.958 12.5 116.667V16.6667C12.5 14.375 14.375 12.5 16.6667 12.5H58.3333V33.3333C58.3333 37.9427 62.0573 41.6667 66.6667 41.6667H87.5V116.667C87.5 118.958 85.625 120.833 83.3333 120.833H16.6667ZM16.6667 0C7.47396 0 0 7.47396 0 16.6667V116.667C0 125.859 7.47396 133.333 16.6667 133.333H83.3333C92.526 133.333 100 125.859 100 116.667V40.2344C100 35.8073 98.2552 31.5625 95.1302 28.4375L71.5365 4.86979C68.4115 1.74479 64.1927 0 59.7656 0H16.6667ZM31.25 66.6667C27.7865 66.6667 25 69.4531 25 72.9167C25 76.3802 27.7865 79.1667 31.25 79.1667H68.75C72.2135 79.1667 75 76.3802 75 72.9167C75 69.4531 72.2135 66.6667 68.75 66.6667H31.25ZM31.25 91.6667C27.7865 91.6667 25 94.4531 25 97.9167C25 101.38 27.7865 104.167 31.25 104.167H68.75C72.2135 104.167 75 101.38 75 97.9167C75 94.4531 72.2135 91.6667 68.75 91.6667H31.25Z" fill="white"/>
</svg>
