<svg width="118" height="126" viewBox="0 0 118 126" fill="none" xmlns="http://www.w3.org/2000/svg">
<path id="Vector" d="M59 0C60.1308 0 61.2617 0.245833 62.2942 0.712915L108.584 20.355C113.993 22.6412 118.024 27.9758 118 34.4166C117.877 58.8032 107.847 103.422 65.49 123.703C61.3846 125.67 56.6154 125.67 52.51 123.703C10.153 103.422 0.123028 58.8032 0.000111817 34.4166C-0.0244715 27.9758 4.00719 22.6412 9.41551 20.355L55.7304 0.712915C56.7383 0.245833 57.8692 0 59 0ZM59 16.4216V109.346C92.9249 92.9248 102.045 56.5661 102.267 34.7608L59 16.4216Z" fill="white"/>
</svg>
